<svg xmlns="http://www.w3.org/2000/svg" id="Layer_1" x="0" y="0" version="1.1" viewBox="0 0 2133.2 2820.5" xml:space="preserve">
  <defs></defs>
  <style>
    .st0{fill:#4bbca9}.st1{fill:#fff}
  </style>
  <path d="M1700.9 213.2l-77.1-77.1-7 7.1-324.7 324.6 77.1 77zM764 544.8l77-77-331.6-331.7-77.1 77.1 7.1 7zM1118.8-9.2h-109v469h109z" class="st0"></path>
  <g>
    <path d="M1458 1479.3H1756.8V786.5h-383.4v266.8h-115.1V786.5H874.9v266.7H759.8V786.5H376.4v692.7h299l52.5 471.7h677.9l52.2-471.6zm-153 359.3H828.2l-52.5-471.7h-287V898.7h158.8v266.7h339.8V898.8H1146v266.7h339.8V898.8h158.8v468.1h-287l-52.6 471.7zM323.8 2684.1h-1.6l-56.8-117.9h-67.7l93.5 176.2v78.2h63.6v-78.2l93.5-176.2h-67.7zM525.5 2566.2h-59.9v254.4h164.6v-53.9H525.5zM659.9 2566.2h59.9v254.3h-59.9zM803.3 2566.2l-46.3 46.3v161.6l46.3 46.3H905l46.3-46.3v-161.6l-46.3-46.3H803.3zm88.3 189.2l-11.2 11.2h-52.7l-10.8-11.2v-124.2l11.2-11.2h52.3l11.2 11.2v124.2zM988.6 2566.2v254.3h59.9v-73.6h88.2l46.3-46.3v-87.9l-46.3-46.3H988.6v-.2zm134.6 115.6l-10.8 11.2h-64v-72.9h63.6l11.2 11.2v50.5zM1216.6 2566.2h59.9v254.3h-59.9zM1373 2655.2v-23.8l11.3-11.3h110.6v-53.9h-135.3l-46.5 46.5v59.4l26.6 31.8 100.7 27.7v23.8l-11.3 11.3h-121.2v53.9h145.9l46.3-46.5v-59.3l-26.4-31.8zM1516.8 2620.1h71.1v200.5h59.8v-200.5h71.1v-53.9h-202zM1889.1 2566.2h-101.7l-46.3 46.3v161.6l46.3 46.3h101.7l46.3-46.3v-161.6l-46.3-46.3zm-13.4 189.2l-11.2 11.2h-52.7l-10.8-11.2v-124.2l11.2-11.2h52.3l11.2 11.2v124.2zM1612.8 2495.8v-254.3h-59.9l3.8 160.4-95.7-160.4h-65.1v254.3h59.8l-3.7-160.5 95.8 160.5zM668.7 2496.1l46.5-46.5v-161.7l-46.5-46.5H566.9l-46.5 46.5v161.7l46.5 46.5h101.8zm-88.4-189.5l11.2-11.2H644l11.2 11.2V2431l-11.2 11.2h-52.8l-10.8-11.2-.1-124.4zM1142.1 2442.1h-104.8v-200.6h-60v254.6h164.8zM894.3 2496.1l46.5-46.4v-208.2h-59.9v187.6l-11.3 11.1h-52.3l-11.3-11.1v-187.6h-59.9v208.2l46.5 46.4zM1358.5 2449.7v-208.2h-60v187.6l-11.1 11.1h-52.5l-11.2-11.1v-187.6h-59.9v208.2l46.4 46.4h101.9z" class="st1"></path>
  </g>
</svg>